<svg version="1.1" id="Layer_1" xmlns="http://www.w3.org/2000/svg" xmlns:xlink="http://www.w3.org/1999/xlink" x="0px" y="0px"
	 width="100%" viewBox="0 0 2000 2000" enable-background="new 0 0 2000 2000" xml:space="preserve">
<path fill="#0F2669" opacity="1.000000" stroke="none" 
	d="
M1104.000000,2001.000000 
	C736.000000,2001.000000 368.500000,2001.000000 1.000000,2001.000000 
	C1.000000,1334.333374 1.000000,667.666687 1.000000,1.000000 
	C667.666687,1.000000 1334.333374,1.000000 2001.000000,1.000000 
	C2001.000000,667.666687 2001.000000,1334.333374 2001.000000,2001.000000 
	C1702.166626,2001.000000 1403.333374,2001.000000 1104.000000,2001.000000 
M1192.458008,820.100525 
	C1190.010132,805.532288 1182.627930,794.031311 1170.414062,785.860229 
	C1123.668213,754.586975 1076.914917,723.323669 1030.001099,692.303345 
	C1010.503906,679.411499 990.597534,679.613953 971.081787,692.566223 
	C925.609375,722.745605 880.301697,753.174316 834.722778,783.191650 
	C816.596680,795.129150 808.132874,811.224243 808.275696,833.042114 
	C808.693481,896.868042 808.419556,960.698547 808.437317,1024.527222 
	C808.438232,1027.857300 808.514893,1031.195801 808.752686,1034.516235 
	C810.347473,1056.779785 827.767700,1075.943604 849.901245,1078.961670 
	C858.594299,1080.147095 867.493958,1080.120483 876.299927,1080.128174 
	C964.126770,1080.205811 1051.954346,1079.982056 1139.780273,1080.278564 
	C1170.985474,1080.383789 1193.681030,1056.308716 1193.306030,1026.937256 
	C1192.472168,961.619324 1193.051147,896.283447 1193.031006,830.954895 
	C1193.030029,827.627869 1192.812256,824.300964 1192.458008,820.100525 
M791.987305,1170.500000 
	C791.987305,1190.250122 791.987305,1210.000366 791.987305,1229.762695 
	C795.809937,1229.762695 799.063232,1229.762695 803.055420,1229.762695 
	C803.055420,1226.559204 803.055420,1223.591797 803.055420,1220.624512 
	C803.492126,1220.454712 803.928833,1220.284912 804.365601,1220.115112 
	C804.789551,1220.831787 805.096191,1221.659790 805.654724,1222.248901 
	C820.764404,1238.187500 846.441467,1233.222168 854.154541,1212.723389 
	C858.711121,1200.613525 858.431335,1188.198608 854.598511,1175.978149 
	C846.884766,1151.384155 816.001892,1152.645630 805.861511,1166.587158 
	C805.231873,1167.452881 804.394531,1168.167480 802.772095,1169.886841 
	C802.772095,1155.691162 802.772095,1142.684814 802.772095,1129.449707 
	C798.934998,1129.449707 795.698547,1129.449707 791.987305,1129.449707 
	C791.987305,1142.950928 791.987305,1156.225464 791.987305,1170.500000 
M1320.947388,1213.431274 
	C1318.987183,1212.345215 1317.026855,1211.259155 1315.139282,1210.213257 
	C1307.577637,1221.048828 1296.848633,1224.516968 1285.723267,1220.165894 
	C1277.041260,1216.770264 1272.018188,1207.382935 1273.417603,1196.672241 
	C1286.656006,1196.672241 1299.950562,1196.672119 1313.245117,1196.672119 
	C1324.403076,1196.672119 1324.365601,1196.674927 1323.569702,1185.315552 
	C1322.891846,1175.641602 1320.360718,1166.902222 1311.633911,1161.272339 
	C1294.808838,1150.418091 1270.772339,1158.491577 1263.979980,1177.285522 
	C1260.782837,1186.131348 1260.716919,1195.246704 1262.127075,1204.405273 
	C1265.671387,1227.424561 1292.310913,1239.698975 1312.124390,1227.178589 
	C1315.892212,1224.797363 1318.606689,1220.681519 1321.581299,1217.174194 
	C1322.120117,1216.538696 1321.557373,1214.968872 1320.947388,1213.431274 
M1080.003906,1213.250122 
	C1079.996582,1201.093018 1080.072266,1188.935059 1079.950317,1176.779175 
	C1079.878906,1169.666626 1077.167847,1163.775146 1070.794678,1160.106812 
	C1057.839111,1152.649902 1036.829956,1157.293457 1027.758423,1169.754150 
	C1029.515869,1172.160400 1031.331787,1174.646729 1033.659058,1177.833252 
	C1035.223877,1175.941895 1036.259644,1174.417847 1037.558105,1173.166260 
	C1044.520630,1166.455078 1052.842529,1164.810181 1062.040283,1166.967407 
	C1066.164429,1167.934814 1068.666504,1170.521118 1069.126587,1174.915771 
	C1069.607666,1179.512207 1067.821411,1182.742920 1063.468628,1184.285767 
	C1060.351929,1185.390381 1057.113647,1186.148682 1053.941406,1187.100708 
	C1047.450195,1189.049072 1040.644775,1190.331787 1034.561279,1193.162231 
	C1026.858276,1196.746216 1024.790527,1204.106812 1025.326050,1212.106689 
	C1025.881958,1220.410889 1029.626343,1226.728638 1037.729004,1229.795044 
	C1049.146240,1234.116089 1060.833496,1230.880615 1068.591675,1221.385742 
	C1068.935059,1220.965454 1069.461548,1220.694702 1069.989624,1220.287231 
	C1074.384033,1230.354858 1080.620239,1232.938721 1090.377319,1228.734619 
	C1089.954956,1226.339111 1089.513916,1223.837402 1089.078491,1221.367920 
	C1081.619385,1222.254395 1080.288574,1221.119385 1080.003906,1213.250122 
M1203.109253,1212.502197 
	C1203.109253,1207.343262 1203.109253,1202.184326 1203.109253,1197.025269 
	C1203.716675,1196.783569 1204.323975,1196.541748 1204.931396,1196.299927 
	C1205.880371,1197.618896 1206.738403,1199.016113 1207.793335,1200.244141 
	C1214.844971,1208.453125 1222.455322,1216.245972 1228.848633,1224.935669 
	C1233.619263,1231.419678 1239.222290,1230.110840 1246.479980,1229.557251 
	C1235.366699,1216.536987 1224.945679,1204.327637 1214.358887,1191.924072 
	C1224.165283,1180.780640 1233.700317,1169.945435 1243.468994,1158.844971 
	C1235.335449,1156.725464 1230.098145,1158.568237 1225.552246,1164.582886 
	C1219.948730,1171.996704 1213.298218,1178.621094 1207.064209,1185.554321 
	C1206.166016,1186.553223 1205.066528,1187.371338 1203.120117,1189.115234 
	C1203.120117,1168.333008 1203.120117,1148.919312 1203.120117,1129.492798 
	C1199.386963,1129.492798 1196.129761,1129.492798 1192.749878,1129.492798 
	C1192.749878,1163.119995 1192.749878,1196.457275 1192.749878,1229.738159 
	C1196.389282,1229.738159 1199.640991,1229.738159 1203.109253,1229.738159 
	C1203.109253,1224.143188 1203.109253,1218.821167 1203.109253,1212.502197 
M721.527710,1157.986084 
	C709.999146,1161.030151 703.050903,1168.628662 699.913086,1179.908203 
	C697.219727,1189.589966 697.283752,1199.329346 700.054993,1208.965454 
	C704.169739,1223.273071 715.310059,1231.218872 731.095093,1231.357422 
	C746.912964,1231.496338 758.755432,1223.917725 762.457825,1209.606445 
	C764.367004,1202.226562 765.007324,1194.054199 764.096375,1186.495972 
	C761.383850,1163.989990 744.492310,1152.800537 721.527710,1157.986084 
M1117.187378,1222.312378 
	C1135.028687,1238.443848 1163.508301,1232.692383 1168.611084,1211.608398 
	C1166.141724,1210.273804 1163.600586,1208.900269 1160.931396,1207.457520 
	C1160.255493,1208.675171 1159.849243,1209.369263 1159.477783,1210.081665 
	C1154.983521,1218.700317 1148.151245,1222.570190 1138.785156,1221.755737 
	C1129.255127,1220.927246 1123.088135,1215.702881 1120.206787,1206.798218 
	C1117.695801,1199.037231 1117.611572,1191.054443 1119.720581,1183.151855 
	C1122.961304,1171.008789 1131.487061,1165.431396 1143.901733,1166.613647 
	C1151.644531,1167.351196 1156.589966,1171.714844 1160.218262,1178.428833 
	C1163.252808,1176.253540 1165.770020,1174.449097 1168.221069,1172.692017 
	C1167.878418,1171.784058 1167.754028,1171.294434 1167.521851,1170.862671 
	C1161.887573,1160.387695 1152.547241,1156.937866 1141.304688,1156.837036 
	C1128.625732,1156.723511 1118.595581,1161.468994 1112.146851,1172.613281 
	C1103.639771,1187.314697 1105.712646,1208.734009 1117.187378,1222.312378 
M905.031128,1162.500610 
	C905.031128,1184.925171 905.031128,1207.349731 905.031128,1229.717407 
	C909.081726,1229.717407 912.502747,1229.717407 916.393066,1229.717407 
	C916.393066,1201.202026 916.393066,1172.968140 916.393066,1144.325195 
	C926.483276,1144.325195 936.104370,1144.325195 945.748779,1144.325195 
	C945.748779,1140.984985 945.748779,1138.064331 945.748779,1135.246094 
	C922.085876,1135.246094 898.707214,1135.246094 875.404419,1135.246094 
	C875.404419,1138.411865 875.404419,1141.173096 875.404419,1144.262695 
	C885.290039,1144.262695 894.923218,1144.262695 905.031128,1144.262695 
	C905.031128,1150.225830 905.031128,1155.863403 905.031128,1162.500610 
M658.111206,1227.718628 
	C663.952942,1224.347168 667.450195,1219.169067 668.800171,1212.728149 
	C669.680847,1208.526001 670.108398,1204.157715 670.136230,1199.859863 
	C670.270325,1179.204834 670.202454,1158.548462 670.190491,1137.892578 
	C670.189941,1136.948486 670.037537,1136.004517 669.956604,1135.069580 
	C666.180054,1135.069580 662.734436,1135.069580 659.035400,1135.069580 
	C659.035400,1156.272461 659.093262,1177.251587 658.984192,1198.229858 
	C658.963562,1202.197144 658.633850,1206.235962 657.812317,1210.107300 
	C656.787537,1214.936279 653.816101,1218.434937 648.892456,1219.968384 
	C638.426819,1223.227661 627.361328,1219.322144 621.257751,1210.221191 
	C620.656128,1209.324097 619.928467,1208.511597 619.237061,1207.631470 
	C610.680908,1215.807373 610.694031,1216.804688 618.881226,1223.655396 
	C630.388428,1233.283936 643.792236,1233.500244 658.111206,1227.718628 
M984.495667,1163.012085 
	C982.963074,1165.070068 981.430481,1167.127930 979.063232,1170.306519 
	C979.063232,1165.549805 979.063232,1162.033203 979.063232,1158.317383 
	C975.352234,1158.317383 972.260986,1158.317383 968.973511,1158.317383 
	C968.973511,1182.203003 968.973511,1205.957642 968.973511,1229.787842 
	C972.458557,1229.787842 975.731140,1229.787842 979.383301,1229.787842 
	C979.383301,1218.608276 979.230042,1207.639282 979.450989,1196.677612 
	C979.554260,1191.550049 979.863159,1186.320435 980.984131,1181.340820 
	C983.518372,1170.083374 992.112732,1165.299072 1003.233398,1168.388916 
	C1004.463135,1168.730469 1005.702820,1169.036255 1007.295593,1169.451904 
	C1008.295593,1166.171143 1009.188538,1163.241699 1010.052429,1160.407471 
	C1002.053528,1155.896240 992.360474,1156.805176 984.495667,1163.012085 
M1379.500244,1157.495728 
	C1370.617065,1157.439453 1363.999756,1161.280762 1360.180542,1169.934814 
	C1359.830078,1169.638062 1359.479736,1169.341309 1359.129272,1169.044556 
	C1359.129272,1165.475708 1359.129272,1161.906982 1359.129272,1158.353271 
	C1355.509277,1158.353271 1352.419922,1158.353271 1349.284180,1158.353271 
	C1349.284180,1182.345825 1349.284180,1206.062378 1349.284180,1229.744629 
	C1352.840088,1229.744629 1356.093628,1229.744629 1359.765991,1229.744629 
	C1359.765991,1218.360718 1359.634766,1207.237793 1359.825684,1196.120239 
	C1359.910889,1191.153687 1360.131226,1186.086426 1361.185547,1181.260376 
	C1363.572021,1170.337036 1372.257568,1165.403687 1383.098022,1168.274902 
	C1384.486938,1168.642944 1385.867920,1169.041260 1387.561035,1169.511108 
	C1388.556396,1166.119263 1389.420044,1163.176270 1390.516602,1159.439453 
	C1386.741943,1158.735107 1383.546021,1158.138794 1379.500244,1157.495728 
z"/>
<path fill="#FCFCFD" opacity="1.000000" stroke="none" 
	d="
M1192.576660,820.537231 
	C1192.812256,824.300964 1193.030029,827.627869 1193.031006,830.954895 
	C1193.051147,896.283447 1192.472168,961.619324 1193.306030,1026.937256 
	C1193.681030,1056.308716 1170.985474,1080.383789 1139.780273,1080.278564 
	C1051.954346,1079.982056 964.126770,1080.205811 876.299927,1080.128174 
	C867.493958,1080.120483 858.594299,1080.147095 849.901245,1078.961670 
	C827.767700,1075.943604 810.347473,1056.779785 808.752686,1034.516235 
	C808.514893,1031.195801 808.438232,1027.857300 808.437317,1024.527222 
	C808.419556,960.698547 808.693481,896.868042 808.275696,833.042114 
	C808.132874,811.224243 816.596680,795.129150 834.722778,783.191650 
	C880.301697,753.174316 925.609375,722.745605 971.081787,692.566223 
	C990.597534,679.613953 1010.503906,679.411499 1030.001099,692.303345 
	C1076.914917,723.323669 1123.668213,754.586975 1170.414062,785.860229 
	C1182.627930,794.031311 1190.010132,805.532288 1192.576660,820.537231 
M1167.263550,810.343201 
	C1163.956055,807.339111 1160.942383,803.905029 1157.288330,801.407959 
	C1143.965088,792.303345 1130.402344,783.550476 1116.976929,774.594360 
	C1084.449951,752.895813 1051.952759,731.152405 1019.436218,709.438171 
	C1007.415466,701.410889 995.148071,700.846558 983.004150,708.909485 
	C936.151428,740.017273 889.354431,771.209229 842.589233,802.448486 
	C833.553406,808.484314 828.607422,817.018799 828.602783,828.052185 
	C828.574463,895.036072 828.480103,962.020264 828.651367,1029.003784 
	C828.697937,1047.228149 841.891724,1059.958496 860.148621,1059.969482 
	C953.792847,1060.026123 1047.437012,1060.025024 1141.081299,1059.971313 
	C1159.997070,1059.960449 1172.979004,1046.768555 1172.986206,1027.790283 
	C1173.010986,961.972717 1172.972778,896.155151 1173.029419,830.337585 
	C1173.035522,823.314148 1171.531128,816.828552 1167.263550,810.343201 
z"/>
<path fill="#F9F9FB" opacity="1.000000" stroke="none" 
	d="
M791.987305,1170.000000 
	C791.987305,1156.225464 791.987305,1142.950928 791.987305,1129.449707 
	C795.698547,1129.449707 798.934998,1129.449707 802.772095,1129.449707 
	C802.772095,1142.684814 802.772095,1155.691162 802.772095,1169.886841 
	C804.394531,1168.167480 805.231873,1167.452881 805.861511,1166.587158 
	C816.001892,1152.645630 846.884766,1151.384155 854.598511,1175.978149 
	C858.431335,1188.198608 858.711121,1200.613525 854.154541,1212.723389 
	C846.441467,1233.222168 820.764404,1238.187500 805.654724,1222.248901 
	C805.096191,1221.659790 804.789551,1220.831787 804.365601,1220.115112 
	C803.928833,1220.284912 803.492126,1220.454712 803.055420,1220.624512 
	C803.055420,1223.591797 803.055420,1226.559204 803.055420,1229.762695 
	C799.063232,1229.762695 795.809937,1229.762695 791.987305,1229.762695 
	C791.987305,1210.000366 791.987305,1190.250122 791.987305,1170.000000 
M836.611389,1169.651001 
	C824.594482,1163.116821 810.855286,1166.470825 805.894897,1177.763184 
	C801.149353,1188.566406 801.255371,1199.821045 805.976868,1210.663208 
	C809.385315,1218.490356 817.429993,1222.501831 826.508057,1221.788208 
	C835.661682,1221.068604 841.425476,1216.755127 844.110413,1208.116577 
	C846.940613,1199.010376 847.186157,1189.666870 844.148804,1180.661865 
	C842.843018,1176.790527 839.607056,1173.570190 836.611389,1169.651001 
z"/>
<path fill="#F9F9FB" opacity="1.000000" stroke="none" 
	d="
M1321.225342,1213.630859 
	C1321.557373,1214.968872 1322.120117,1216.538696 1321.581299,1217.174194 
	C1318.606689,1220.681519 1315.892212,1224.797363 1312.124390,1227.178589 
	C1292.310913,1239.698975 1265.671387,1227.424561 1262.127075,1204.405273 
	C1260.716919,1195.246704 1260.782837,1186.131348 1263.979980,1177.285522 
	C1270.772339,1158.491577 1294.808838,1150.418091 1311.633911,1161.272339 
	C1320.360718,1166.902222 1322.891846,1175.641602 1323.569702,1185.315552 
	C1324.365601,1196.674927 1324.403076,1196.672119 1313.245117,1196.672119 
	C1299.950562,1196.672119 1286.656006,1196.672241 1273.417603,1196.672241 
	C1272.018188,1207.382935 1277.041260,1216.770264 1285.723267,1220.165894 
	C1296.848633,1224.516968 1307.577637,1221.048828 1315.139282,1210.213257 
	C1317.026855,1211.259155 1318.987183,1212.345215 1321.225342,1213.630859 
M1274.092773,1180.860474 
	C1273.714111,1182.944702 1273.335327,1185.028809 1272.915771,1187.338379 
	C1286.462646,1187.338379 1299.603638,1187.338379 1312.735596,1187.338379 
	C1312.951782,1174.995239 1307.715820,1167.563232 1298.026855,1166.108887 
	C1286.414062,1164.365601 1278.489624,1169.037231 1274.092773,1180.860474 
z"/>
<path fill="#F9F9FB" opacity="1.000000" stroke="none" 
	d="
M1080.004272,1213.720215 
	C1080.288574,1221.119385 1081.619385,1222.254395 1089.078491,1221.367920 
	C1089.513916,1223.837402 1089.954956,1226.339111 1090.377319,1228.734619 
	C1080.620239,1232.938721 1074.384033,1230.354858 1069.989624,1220.287231 
	C1069.461548,1220.694702 1068.935059,1220.965454 1068.591675,1221.385742 
	C1060.833496,1230.880615 1049.146240,1234.116089 1037.729004,1229.795044 
	C1029.626343,1226.728638 1025.881958,1220.410889 1025.326050,1212.106689 
	C1024.790527,1204.106812 1026.858276,1196.746216 1034.561279,1193.162231 
	C1040.644775,1190.331787 1047.450195,1189.049072 1053.941406,1187.100708 
	C1057.113647,1186.148682 1060.351929,1185.390381 1063.468628,1184.285767 
	C1067.821411,1182.742920 1069.607666,1179.512207 1069.126587,1174.915771 
	C1068.666504,1170.521118 1066.164429,1167.934814 1062.040283,1166.967407 
	C1052.842529,1164.810181 1044.520630,1166.455078 1037.558105,1173.166260 
	C1036.259644,1174.417847 1035.223877,1175.941895 1033.659058,1177.833252 
	C1031.331787,1174.646729 1029.515869,1172.160400 1027.758423,1169.754150 
	C1036.829956,1157.293457 1057.839111,1152.649902 1070.794678,1160.106812 
	C1077.167847,1163.775146 1079.878906,1169.666626 1079.950317,1176.779175 
	C1080.072266,1188.935059 1079.996582,1201.093018 1080.004272,1213.720215 
M1043.975098,1221.877075 
	C1062.032593,1225.992188 1073.338745,1212.535156 1069.105469,1192.455566 
	C1061.269897,1194.292480 1053.397217,1195.985352 1045.612793,1198.016724 
	C1040.359009,1199.387695 1036.775024,1202.692505 1036.368896,1208.439331 
	C1035.964844,1214.157471 1037.505615,1219.002075 1043.975098,1221.877075 
z"/>
<path fill="#F9F9FB" opacity="1.000000" stroke="none" 
	d="
M1203.109253,1213.000732 
	C1203.109253,1218.821167 1203.109253,1224.143188 1203.109253,1229.738159 
	C1199.640991,1229.738159 1196.389282,1229.738159 1192.749878,1229.738159 
	C1192.749878,1196.457275 1192.749878,1163.119995 1192.749878,1129.492798 
	C1196.129761,1129.492798 1199.386963,1129.492798 1203.120117,1129.492798 
	C1203.120117,1148.919312 1203.120117,1168.333008 1203.120117,1189.115234 
	C1205.066528,1187.371338 1206.166016,1186.553223 1207.064209,1185.554321 
	C1213.298218,1178.621094 1219.948730,1171.996704 1225.552246,1164.582886 
	C1230.098145,1158.568237 1235.335449,1156.725464 1243.468994,1158.844971 
	C1233.700317,1169.945435 1224.165283,1180.780640 1214.358887,1191.924072 
	C1224.945679,1204.327637 1235.366699,1216.536987 1246.479980,1229.557251 
	C1239.222290,1230.110840 1233.619263,1231.419678 1228.848633,1224.935669 
	C1222.455322,1216.245972 1214.844971,1208.453125 1207.793335,1200.244141 
	C1206.738403,1199.016113 1205.880371,1197.618896 1204.931396,1196.299927 
	C1204.323975,1196.541748 1203.716675,1196.783569 1203.109253,1197.025269 
	C1203.109253,1202.184326 1203.109253,1207.343262 1203.109253,1213.000732 
z"/>
<path fill="#F9F9FB" opacity="1.000000" stroke="none" 
	d="
M721.930786,1157.908691 
	C744.492310,1152.800537 761.383850,1163.989990 764.096375,1186.495972 
	C765.007324,1194.054199 764.367004,1202.226562 762.457825,1209.606445 
	C758.755432,1223.917725 746.912964,1231.496338 731.095093,1231.357422 
	C715.310059,1231.218872 704.169739,1223.273071 700.054993,1208.965454 
	C697.283752,1199.329346 697.219727,1189.589966 699.913086,1179.908203 
	C703.050903,1168.628662 709.999146,1161.030151 721.930786,1157.908691 
M748.559265,1174.095337 
	C742.197998,1166.107056 733.622742,1165.228882 724.593323,1167.302368 
	C716.446899,1169.172852 711.448730,1175.151855 710.670837,1183.117676 
	C709.876953,1191.246948 709.920227,1199.738892 711.408203,1207.734985 
	C713.069275,1216.661011 720.538879,1221.330811 730.252441,1221.819824 
	C739.937317,1222.307373 747.921875,1218.173584 750.771423,1209.953125 
	C754.875183,1198.114990 755.111267,1186.172607 748.559265,1174.095337 
z"/>
<path fill="#F9F9FB" opacity="1.000000" stroke="none" 
	d="
M1116.937988,1222.058105 
	C1105.712646,1208.734009 1103.639771,1187.314697 1112.146851,1172.613281 
	C1118.595581,1161.468994 1128.625732,1156.723511 1141.304688,1156.837036 
	C1152.547241,1156.937866 1161.887573,1160.387695 1167.521851,1170.862671 
	C1167.754028,1171.294434 1167.878418,1171.784058 1168.221069,1172.692017 
	C1165.770020,1174.449097 1163.252808,1176.253540 1160.218262,1178.428833 
	C1156.589966,1171.714844 1151.644531,1167.351196 1143.901733,1166.613647 
	C1131.487061,1165.431396 1122.961304,1171.008789 1119.720581,1183.151855 
	C1117.611572,1191.054443 1117.695801,1199.037231 1120.206787,1206.798218 
	C1123.088135,1215.702881 1129.255127,1220.927246 1138.785156,1221.755737 
	C1148.151245,1222.570190 1154.983521,1218.700317 1159.477783,1210.081665 
	C1159.849243,1209.369263 1160.255493,1208.675171 1160.931396,1207.457520 
	C1163.600586,1208.900269 1166.141724,1210.273804 1168.611084,1211.608398 
	C1163.508301,1232.692383 1135.028687,1238.443848 1116.937988,1222.058105 
z"/>
<path fill="#FEFEFE" opacity="1.000000" stroke="none" 
	d="
M905.031128,1162.000732 
	C905.031128,1155.863403 905.031128,1150.225830 905.031128,1144.262695 
	C894.923218,1144.262695 885.290039,1144.262695 875.404419,1144.262695 
	C875.404419,1141.173096 875.404419,1138.411865 875.404419,1135.246094 
	C898.707214,1135.246094 922.085876,1135.246094 945.748779,1135.246094 
	C945.748779,1138.064331 945.748779,1140.984985 945.748779,1144.325195 
	C936.104370,1144.325195 926.483276,1144.325195 916.393066,1144.325195 
	C916.393066,1172.968140 916.393066,1201.202026 916.393066,1229.717407 
	C912.502747,1229.717407 909.081726,1229.717407 905.031128,1229.717407 
	C905.031128,1207.349731 905.031128,1184.925171 905.031128,1162.000732 
z"/>
<path fill="#FCFCFD" opacity="1.000000" stroke="none" 
	d="
M657.774902,1227.872559 
	C643.792236,1233.500244 630.388428,1233.283936 618.881226,1223.655396 
	C610.694031,1216.804688 610.680908,1215.807373 619.237061,1207.631470 
	C619.928467,1208.511597 620.656128,1209.324097 621.257751,1210.221191 
	C627.361328,1219.322144 638.426819,1223.227661 648.892456,1219.968384 
	C653.816101,1218.434937 656.787537,1214.936279 657.812317,1210.107300 
	C658.633850,1206.235962 658.963562,1202.197144 658.984192,1198.229858 
	C659.093262,1177.251587 659.035400,1156.272461 659.035400,1135.069580 
	C662.734436,1135.069580 666.180054,1135.069580 669.956604,1135.069580 
	C670.037537,1136.004517 670.189941,1136.948486 670.190491,1137.892578 
	C670.202454,1158.548462 670.270325,1179.204834 670.136230,1199.859863 
	C670.108398,1204.157715 669.680847,1208.526001 668.800171,1212.728149 
	C667.450195,1219.169067 663.952942,1224.347168 657.774902,1227.872559 
z"/>
<path fill="#FCFCFD" opacity="1.000000" stroke="none" 
	d="
M984.754456,1162.753540 
	C992.360474,1156.805176 1002.053528,1155.896240 1010.052429,1160.407471 
	C1009.188538,1163.241699 1008.295593,1166.171143 1007.295593,1169.451904 
	C1005.702820,1169.036255 1004.463135,1168.730469 1003.233398,1168.388916 
	C992.112732,1165.299072 983.518372,1170.083374 980.984131,1181.340820 
	C979.863159,1186.320435 979.554260,1191.550049 979.450989,1196.677612 
	C979.230042,1207.639282 979.383301,1218.608276 979.383301,1229.787842 
	C975.731140,1229.787842 972.458557,1229.787842 968.973511,1229.787842 
	C968.973511,1205.957642 968.973511,1182.203003 968.973511,1158.317383 
	C972.260986,1158.317383 975.352234,1158.317383 979.063232,1158.317383 
	C979.063232,1162.033203 979.063232,1165.549805 979.063232,1170.306519 
	C981.430481,1167.127930 982.963074,1165.070068 984.754456,1162.753540 
z"/>
<path fill="#F9F9FB" opacity="1.000000" stroke="none" 
	d="
M1379.925171,1157.519043 
	C1383.546021,1158.138794 1386.741943,1158.735107 1390.516602,1159.439453 
	C1389.420044,1163.176270 1388.556396,1166.119263 1387.561035,1169.511108 
	C1385.867920,1169.041260 1384.486938,1168.642944 1383.098022,1168.274902 
	C1372.257568,1165.403687 1363.572021,1170.337036 1361.185547,1181.260376 
	C1360.131226,1186.086426 1359.910889,1191.153687 1359.825684,1196.120239 
	C1359.634766,1207.237793 1359.765991,1218.360718 1359.765991,1229.744629 
	C1356.093628,1229.744629 1352.840088,1229.744629 1349.284180,1229.744629 
	C1349.284180,1206.062378 1349.284180,1182.345825 1349.284180,1158.353271 
	C1352.419922,1158.353271 1355.509277,1158.353271 1359.129272,1158.353271 
	C1359.129272,1161.906982 1359.129272,1165.475708 1359.129272,1169.044556 
	C1359.479736,1169.341309 1359.830078,1169.638062 1360.180542,1169.934814 
	C1363.999756,1161.280762 1370.617065,1157.439453 1379.925171,1157.519043 
z"/>
<path fill="#10276A" opacity="1.000000" stroke="none" 
	d="
M1167.487671,810.628540 
	C1171.531128,816.828552 1173.035522,823.314148 1173.029419,830.337585 
	C1172.972778,896.155151 1173.010986,961.972717 1172.986206,1027.790283 
	C1172.979004,1046.768555 1159.997070,1059.960449 1141.081299,1059.971313 
	C1047.437012,1060.025024 953.792847,1060.026123 860.148621,1059.969482 
	C841.891724,1059.958496 828.697937,1047.228149 828.651367,1029.003784 
	C828.480103,962.020264 828.574463,895.036072 828.602783,828.052185 
	C828.607422,817.018799 833.553406,808.484314 842.589233,802.448486 
	C889.354431,771.209229 936.151428,740.017273 983.004150,708.909485 
	C995.148071,700.846558 1007.415466,701.410889 1019.436218,709.438171 
	C1051.952759,731.152405 1084.449951,752.895813 1116.976929,774.594360 
	C1130.402344,783.550476 1143.965088,792.303345 1157.288330,801.407959 
	C1160.942383,803.905029 1163.956055,807.339111 1167.487671,810.628540 
M1010.163330,910.499939 
	C1010.055786,938.980774 1009.965942,967.461731 1009.809570,995.942261 
	C1009.795898,998.422241 1010.043030,1001.293335 1008.923645,1003.281494 
	C1007.436218,1005.923218 1004.980042,1008.246704 1002.446594,1009.989746 
	C1000.843750,1011.092529 998.341370,1010.887878 996.039673,1011.306580 
	C996.039673,1014.408081 996.039673,1017.487549 996.039673,1020.780396 
	C1020.488403,1020.780396 1044.728760,1020.780396 1069.130371,1020.780396 
	C1069.130371,1017.487244 1069.130371,1014.416565 1069.130371,1011.392456 
	C1056.983398,1009.319275 1055.427979,1007.426331 1055.363525,994.901184 
	C1055.361816,994.568054 1055.362671,994.234924 1055.362671,993.901794 
	C1055.362427,949.762573 1055.362305,905.623291 1055.362183,861.484070 
	C1055.362183,859.727356 1055.362305,857.970703 1055.362305,855.903076 
	C1065.780518,856.496155 1075.369629,857.598938 1083.467407,863.630737 
	C1096.238037,873.143066 1097.327515,887.819336 1099.542847,901.817871 
	C1102.959839,901.817871 1106.055176,901.817871 1109.224365,901.817871 
	C1109.224365,883.124451 1109.224365,864.715576 1109.224365,846.223938 
	C1076.132812,846.223938 1043.284546,846.223938 1010.163391,846.223938 
	C1010.163391,867.569275 1010.163391,888.534546 1010.163330,910.499939 
M904.137146,942.500122 
	C904.137146,949.929626 904.137146,957.359192 904.137146,964.891052 
	C926.631226,964.891052 948.461792,965.366455 970.260681,964.739380 
	C987.422791,964.245728 999.249512,953.419006 1002.502075,936.668823 
	C1003.288330,932.619812 1003.320557,928.382141 1003.327576,924.230652 
	C1003.387756,888.569397 1003.351929,852.908020 1003.382874,817.246643 
	C1003.385315,814.422119 1003.575806,811.588257 1003.850952,808.775574 
	C1004.293457,804.252014 1006.859802,801.498901 1011.277649,800.540100 
	C1013.180542,800.127136 1015.125244,799.906860 1017.063477,799.597107 
	C1017.063477,796.286377 1017.063477,793.225159 1017.063477,790.056885 
	C992.653992,790.056885 968.563538,790.056885 944.246704,790.056885 
	C944.246704,793.354187 944.246704,796.438965 944.246704,799.495056 
	C955.488037,801.240051 957.963318,803.495972 957.979919,812.834778 
	C958.048279,851.328796 958.115417,889.823792 957.862549,928.316345 
	C957.828308,933.520996 956.633362,938.958252 954.815491,943.857239 
	C951.730530,952.171082 943.369873,955.894409 932.384460,954.865112 
	C922.713196,953.958984 917.818909,949.898315 916.007080,940.330139 
	C914.839600,934.164673 914.498047,927.842773 913.761047,921.369751 
	C910.747131,921.369751 907.677246,921.369751 904.137146,921.369751 
	C904.137146,928.249878 904.137146,934.875061 904.137146,942.500122 
z"/>
<path fill="#10276A" opacity="1.000000" stroke="none" 
	d="
M836.929688,1169.852539 
	C839.607056,1173.570190 842.843018,1176.790527 844.148804,1180.661865 
	C847.186157,1189.666870 846.940613,1199.010376 844.110413,1208.116577 
	C841.425476,1216.755127 835.661682,1221.068604 826.508057,1221.788208 
	C817.429993,1222.501831 809.385315,1218.490356 805.976868,1210.663208 
	C801.255371,1199.821045 801.149353,1188.566406 805.894897,1177.763184 
	C810.855286,1166.470825 824.594482,1163.116821 836.929688,1169.852539 
z"/>
<path fill="#10276A" opacity="1.000000" stroke="none" 
	d="
M1274.200928,1180.475586 
	C1278.489624,1169.037231 1286.414062,1164.365601 1298.026855,1166.108887 
	C1307.715820,1167.563232 1312.951782,1174.995239 1312.735596,1187.338379 
	C1299.603638,1187.338379 1286.462646,1187.338379 1272.915771,1187.338379 
	C1273.335327,1185.028809 1273.714111,1182.944702 1274.200928,1180.475586 
z"/>
<path fill="#10276A" opacity="1.000000" stroke="none" 
	d="
M1043.613647,1221.721313 
	C1037.505615,1219.002075 1035.964844,1214.157471 1036.368896,1208.439331 
	C1036.775024,1202.692505 1040.359009,1199.387695 1045.612793,1198.016724 
	C1053.397217,1195.985352 1061.269897,1194.292480 1069.105469,1192.455566 
	C1073.338745,1212.535156 1062.032593,1225.992188 1043.613647,1221.721313 
z"/>
<path fill="#10276A" opacity="1.000000" stroke="none" 
	d="
M748.765869,1174.402588 
	C755.111267,1186.172607 754.875183,1198.114990 750.771423,1209.953125 
	C747.921875,1218.173584 739.937317,1222.307373 730.252441,1221.819824 
	C720.538879,1221.330811 713.069275,1216.661011 711.408203,1207.734985 
	C709.920227,1199.738892 709.876953,1191.246948 710.670837,1183.117676 
	C711.448730,1175.151855 716.446899,1169.172852 724.593323,1167.302368 
	C733.622742,1165.228882 742.197998,1166.107056 748.765869,1174.402588 
z"/>
<path fill="#FEFEFE" opacity="1.000000" stroke="none" 
	d="
M1010.163330,909.999878 
	C1010.163391,888.534546 1010.163391,867.569275 1010.163391,846.223938 
	C1043.284546,846.223938 1076.132812,846.223938 1109.224365,846.223938 
	C1109.224365,864.715576 1109.224365,883.124451 1109.224365,901.817871 
	C1106.055176,901.817871 1102.959839,901.817871 1099.542847,901.817871 
	C1097.327515,887.819336 1096.238037,873.143066 1083.467407,863.630737 
	C1075.369629,857.598938 1065.780518,856.496155 1055.362305,855.903076 
	C1055.362305,857.970703 1055.362183,859.727356 1055.362183,861.484070 
	C1055.362305,905.623291 1055.362427,949.762573 1055.362671,993.901794 
	C1055.362671,994.234924 1055.361816,994.568054 1055.363525,994.901184 
	C1055.427979,1007.426331 1056.983398,1009.319275 1069.130371,1011.392456 
	C1069.130371,1014.416565 1069.130371,1017.487244 1069.130371,1020.780396 
	C1044.728760,1020.780396 1020.488403,1020.780396 996.039673,1020.780396 
	C996.039673,1017.487549 996.039673,1014.408081 996.039673,1011.306580 
	C998.341370,1010.887878 1000.843750,1011.092529 1002.446594,1009.989746 
	C1004.980042,1008.246704 1007.436218,1005.923218 1008.923645,1003.281494 
	C1010.043030,1001.293335 1009.795898,998.422241 1009.809570,995.942261 
	C1009.965942,967.461731 1010.055786,938.980774 1010.163330,909.999878 
z"/>
<path fill="#FEFEFE" opacity="1.000000" stroke="none" 
	d="
M904.137146,942.000183 
	C904.137146,934.875061 904.137146,928.249878 904.137146,921.369751 
	C907.677246,921.369751 910.747131,921.369751 913.761047,921.369751 
	C914.498047,927.842773 914.839600,934.164673 916.007080,940.330139 
	C917.818909,949.898315 922.713196,953.958984 932.384460,954.865112 
	C943.369873,955.894409 951.730530,952.171082 954.815491,943.857239 
	C956.633362,938.958252 957.828308,933.520996 957.862549,928.316345 
	C958.115417,889.823792 958.048279,851.328796 957.979919,812.834778 
	C957.963318,803.495972 955.488037,801.240051 944.246704,799.495056 
	C944.246704,796.438965 944.246704,793.354187 944.246704,790.056885 
	C968.563538,790.056885 992.653992,790.056885 1017.063477,790.056885 
	C1017.063477,793.225159 1017.063477,796.286377 1017.063477,799.597107 
	C1015.125244,799.906860 1013.180542,800.127136 1011.277649,800.540100 
	C1006.859802,801.498901 1004.293457,804.252014 1003.850952,808.775574 
	C1003.575806,811.588257 1003.385315,814.422119 1003.382874,817.246643 
	C1003.351929,852.908020 1003.387756,888.569397 1003.327576,924.230652 
	C1003.320557,928.382141 1003.288330,932.619812 1002.502075,936.668823 
	C999.249512,953.419006 987.422791,964.245728 970.260681,964.739380 
	C948.461792,965.366455 926.631226,964.891052 904.137146,964.891052 
	C904.137146,957.359192 904.137146,949.929626 904.137146,942.000183 
z"/>
</svg>